<svg width="800" height="1300"><rect y="1" x="1" height="648" width="398" fill="#1f77b4"></rect><rect y="1" x="400" height="171" width="399" fill="#ff7f0e"></rect><rect y="173" x="400" height="166" width="399" fill="#2ca02c"></rect><rect y="340" x="400" height="139" width="399" fill="#d62728"></rect><rect y="480" x="400" height="82" width="399" fill="#9467bd"></rect><rect y="563" x="400" height="67" width="399" fill="#8c564b"></rect><rect y="631" x="400" height="18" width="399" fill="#e377c2"></rect><rect y="650" x="400" height="0" width="399" fill="#7f7f7f"></rect><rect y="650" x="400" height="0" width="399" fill="#bcbd22"></rect><rect y="650" x="400" height="0" width="399" fill="#17becf"></rect><g class="legend" transform="translate(0,900)"><rect x="782" width="18" height="18" style="fill: rgb(31, 119, 180);"></rect><text x="776" y="9" dy=".35em" style="text-anchor: end;"></text></g><g class="legend" transform="translate(0,920)"><rect x="782" width="18" height="18" style="fill: rgb(255, 127, 14);"></rect><text x="776" y="9" dy=".35em" style="text-anchor: end;">Grassland</text></g><g class="legend" transform="translate(0,940)"><rect x="782" width="18" height="18" style="fill: rgb(44, 160, 44);"></rect><text x="776" y="9" dy=".35em" style="text-anchor: end;">Wetlands</text></g><g class="legend" transform="translate(0,960)"><rect x="782" width="18" height="18" style="fill: rgb(214, 39, 40);"></rect><text x="776" y="9" dy=".35em" style="text-anchor: end;">Forest</text></g><g class="legend" transform="translate(0,980)"><rect x="782" width="18" height="18" style="fill: rgb(148, 103, 189);"></rect><text x="776" y="9" dy=".35em" style="text-anchor: end;">Shrubland</text></g><g class="legend" transform="translate(0,1000)"><rect x="782" width="18" height="18" style="fill: rgb(140, 86, 75);"></rect><text x="776" y="9" dy=".35em" style="text-anchor: end;">Savanna</text></g><g class="legend" transform="translate(0,1020)"><rect x="782" width="18" height="18" style="fill: rgb(227, 119, 194);"></rect><text x="776" y="9" dy=".35em" style="text-anchor: end;">Desert</text></g><g class="legend" transform="translate(0,1040)"><rect x="782" width="18" height="18" style="fill: rgb(127, 127, 127);"></rect><text x="776" y="9" dy=".35em" style="text-anchor: end;">Blue Carbon Ecosystems</text></g><g class="legend" transform="translate(0,1060)"><rect x="782" width="18" height="18" style="fill: rgb(188, 189, 34);"></rect><text x="776" y="9" dy=".35em" style="text-anchor: end;">Continental margins</text></g><g class="legend" transform="translate(0,1080)"><rect x="782" width="18" height="18" style="fill: rgb(23, 190, 207);"></rect><text x="776" y="9" dy=".35em" style="text-anchor: end;">Open Ocean</text></g></svg>